<svg width="37" height="31" viewBox="0 0 37 31" fill="none" xmlns="http://www.w3.org/2000/svg">
<path d="M36.7865 5.74413C36.5747 5.4816 36.2339 5.31933 35.8637 5.30565L12.9122 4.45003C12.2537 4.42511 11.7034 4.86481 11.6752 5.43169C11.6473 5.99835 12.1548 6.47715 12.8102 6.5015L34.2078 7.29925L30.0006 18.6522H11.278L7.89545 2.72347C7.82109 2.37436 7.54396 2.08311 7.16175 1.95342L1.62176 0.0711036C1.01118 -0.13564 0.322194 0.123738 0.0824017 0.65116C-0.156977 1.17887 0.142847 1.77511 0.753092 1.9825L5.67902 3.65614L9.12124 19.8644C9.22499 20.3517 9.716 20.7056 10.2891 20.7056H10.8601L9.55619 23.8379C9.44706 24.1003 9.49202 24.3917 9.67775 24.6196C9.86322 24.8476 10.1649 24.9832 10.4869 24.9832H11.4014C10.8347 25.5287 10.4869 26.2469 10.4869 27.0367C10.4869 28.7352 12.0849 30.1169 14.0483 30.1169C16.0118 30.1169 17.6098 28.7352 17.6098 27.0367C17.6098 26.247 17.2619 25.5287 16.6953 24.9832H24.4602C23.8932 25.5287 23.5455 26.2469 23.5455 27.0367C23.5455 28.7352 25.143 30.1169 27.1069 30.1169C29.0709 30.1169 30.6684 28.7352 30.6684 27.0367C30.6684 26.247 30.3206 25.5287 29.7541 24.9832H30.8663C31.4128 24.9832 31.8556 24.6002 31.8556 24.1277C31.8556 23.6551 31.4127 23.2721 30.8663 23.2721H11.8945L12.9628 20.7053H30.8662C31.3824 20.7053 31.8393 20.4168 31.9965 19.992L36.943 6.6445C37.0566 6.33987 36.9983 6.0068 36.7865 5.74413ZM14.0484 28.406C13.1754 28.406 12.4655 27.7921 12.4655 27.0371C12.4655 26.2821 13.1754 25.6681 14.0484 25.6681C14.9214 25.6681 15.6312 26.2821 15.6312 27.0371C15.6312 27.7921 14.9214 28.406 14.0484 28.406ZM27.1069 28.406C26.2339 28.406 25.5241 27.7921 25.5241 27.0371C25.5241 26.2821 26.2339 25.6681 27.1069 25.6681C27.9799 25.6681 28.6898 26.2821 28.6898 27.0371C28.6898 27.7921 27.9799 28.406 27.1069 28.406Z" fill="white"/>
</svg>
