<svg width="110" height="63" viewBox="0 0 110 63" fill="none" xmlns="http://www.w3.org/2000/svg">
<circle cx="55" cy="31.194" r="31.194" fill="white"/>
<path d="M33.9194 24.9642C33.9722 23.6107 34.5435 22.4506 35.6333 21.4838C36.5298 20.6927 37.5493 20.2797 38.6919 20.2445V22.9603C38.1821 22.9603 37.6987 23.1888 37.2417 23.6459C36.8022 24.1029 36.5474 24.7094 36.4771 25.4652L33.9194 24.9642ZM34.4731 38.7015V35.8275H45.1255V38.7015H34.4731ZM34.4731 34.5355C34.4731 32.9886 35.4751 31.5472 37.479 30.2113C37.7251 30.0355 38.0767 29.807 38.5337 29.5258C38.9556 29.2621 39.2456 29.0775 39.4038 28.972C39.5444 28.8842 39.7554 28.7435 40.0366 28.5502C41.2319 27.7592 41.979 27.1088 42.2778 26.599C42.5063 26.2474 42.6206 25.8871 42.6206 25.5179C42.6206 24.2699 42.1021 23.4701 41.0649 23.1185C40.7485 23.0131 40.4146 22.9603 40.063 22.9603V20.2445C42.4185 20.2445 44.0093 21.1498 44.8354 22.9603C45.1694 23.7162 45.3364 24.5599 45.3364 25.4916C45.3364 26.9154 44.8091 28.1195 43.7544 29.1039C43.3325 29.4906 42.8052 29.8949 42.1724 30.3168C41.9087 30.4926 41.4956 30.7474 40.9331 31.0814C39.5444 31.89 38.6479 32.5668 38.2437 33.1117C37.9097 33.5687 37.7339 34.0433 37.7163 34.5355H34.4731ZM46.813 34.931V32.2152L52.5874 22.3275V27.5746L49.8452 32.2152H52.5874V34.931H46.813ZM54.0112 38.7015V20.2181H56.938V32.2152H58.3618V34.931H56.938V38.7015H54.0112ZM64.8749 29.3595C64.8749 30.6375 65.4689 31.2765 66.6569 31.2765C67.4309 31.2765 68.1509 31.1955 68.8169 31.0335C69.4829 30.8535 70.1489 30.6195 70.8149 30.3315V23.9595H74.8379V38.7015H70.8149V32.8425C70.1849 33.1845 69.4649 33.4995 68.6549 33.7875C67.8449 34.0575 66.9269 34.1925 65.9009 34.1925C64.3709 34.1925 63.1469 33.7965 62.2289 33.0045C61.3109 32.2125 60.8519 31.0245 60.8519 29.4405V23.9595H64.8749V29.3595Z" fill="#FF0000"/>
</svg>
